<?xml version="1.0" encoding="utf-8"?>
<!-- Designed by Vexels.com - 2016 All Rights Reserved - https://vexels.com/terms-and-conditions/  -->

<svg version="1.0" id="Capa_1" xmlns="http://www.w3.org/2000/svg" xmlns:xlink="http://www.w3.org/1999/xlink" x="0px" y="0px"
	 width="1200px" height="1200px" viewBox="0 0 1200 1200" enable-background="new 0 0 1200 1200" xml:space="preserve">
<g>
	<g>
		<path d="M919.045,512.135c-46.064,41.296-124.474,120.45-149.831,174.734c-3.351-127.277,111.863-220.016,121.633-227.639
			c-11.524-19.346-24.395-38.744-38.588-58.009c-61.815,53.789-183.486,173.871-221.205,254.624
			c-4.627-175.447,152.024-304.001,169.435-317.734c-11.312-12.464-23.158-24.786-35.551-36.89
			c-3.217-3.131-6.442-6.225-9.683-9.295c-54.206,44.526-195.379,179.516-236.535,267.643
			c-4.898-185.758,171.025-318.973,171.025-318.973s3.076,0.585,8.009,1.634c-16.135-12.696-32.418-24.493-48.749-35.393
			c-54.942,45.36-194.59,179.203-235.492,266.774C409.341,315.509,536.145,195.476,574,163.24
			c-24.535-12.151-48.766-22.086-72.305-29.692c-44.846,43.297-100.464,103.798-121.067,147.912
			c-1.738-65.838,28.269-122.416,58.995-162.789c-66.051-9.889-122.627,2.239-159.067,39.558
			c-91.098,93.3-21.928,308.577,154.499,480.838C611.483,811.336,828.351,875.35,919.452,782.058
			C975.097,725.065,970.925,622.557,919.045,512.135z"/>
		<path d="M593.349,819.461c-10.613,0.73-21.224,1.121-31.82,1.121h-0.023c-172.343-0.017-315.548-94.702-356.343-235.625
			c-19.304-66.693-14.266-137.203,13.721-203.951c-2.856-10.717-5.522-21.472-7.924-32.294
			c-39.493,78.053-48.733,162.476-25.708,242.006c43.386,149.879,194.591,250.577,376.254,250.594h0.023
			c22.945,0,45.954-1.654,68.887-4.878C617.503,831.965,604.981,826.595,593.349,819.461z"/>
		<path d="M1014.75,350.591C971.364,200.707,820.154,100,638.5,100c-24.429,0-48.93,1.912-73.328,5.582
			c12.632,5.057,24.977,10.804,37.331,16.574c12.006-0.941,24.011-1.425,35.997-1.425c172.339,0,315.539,94.694,356.334,235.622
			c18.467,63.796,14.662,131.083-10.193,195.23c4.085,9.982,6.802,21.145,8.517,32.615
			C1029.147,508.511,1036.952,427.28,1014.75,350.591z"/>
	</g>
	<g>
		<path d="M306.949,1008.038c23.367,7.407,35.048,22.211,35.048,44.419c0,9.645-2.291,18.242-6.874,25.797
			c-4.584,7.554-11.032,13.072-19.348,16.542c-8.319,3.467-16.636,5.205-24.954,5.205h-35.464c-1.388,0-2.081-0.736-2.081-2.201
			v-5.666c0-1.622,0.989-3.163,2.962-4.629c2.962-2.083,4.443-5.087,4.443-9.017V941.533c0-4.087-1.482-7.099-4.443-9.025
			c-1.973-1.228-2.962-2.781-2.962-4.626v-5.324c0-1.614,0.963-2.427,2.89-2.427h36.85c13.705,0,24.738,4.07,33.093,12.203
			c8.355,8.136,12.533,18.642,12.533,31.52c0,9.104-2.369,17.637-7.114,25.623C326.787,997.453,318.591,1003.646,306.949,1008.038z
			 M287.401,934.355v67.09c16.426,0,24.638-11.178,24.638-33.545c0-8.331-1.12-15.172-3.354-20.528
			c-2.238-5.361-4.973-8.869-8.213-10.529C297.234,935.184,292.874,934.355,287.401,934.355z M287.401,1014.746v71.6
			c6.478-0.226,11.625-1.385,15.442-3.467c3.818-2.083,6.727-5.645,8.733-10.703c2.006-5.048,3.008-11.853,3.008-20.415
			c0-12.33-2.103-21.568-6.304-27.7C304.075,1017.932,297.118,1014.824,287.401,1014.746z"/>
		<path d="M405.889,942.894l-1.085-7.858c-0.359-2.537-0.542-3.962-0.542-4.275c0-0.768,0.579-1.425,1.74-1.964l19.595-9.13
			c0.31-0.157,0.656-0.235,1.043-0.235c1.08,0,1.775,0.698,2.087,2.077l31.348,156.86c0.537,2.85,1.214,4.892,2.023,6.129
			c0.811,1.24,2.371,2.546,4.684,3.931c1.772,1.081,2.662,2.317,2.662,3.705v5.087c0,1.857-0.734,2.781-2.198,2.781h-38.634
			c-2.082,0-3.124-0.924-3.124-2.781v-5.087c0-1.778,1.241-3.282,3.725-4.518c3.022-1.619,4.535-3.812,4.535-6.593
			c0-0.773-0.078-1.659-0.233-2.659l-4.831-24.169h-30.23l-4.837,23.259c-0.23,1.002-0.346,1.738-0.346,2.193
			c0,2.317,1.725,4.86,5.175,7.632c2.222,1.854,3.334,3.467,3.334,4.854v5.087c0,1.857-1.119,2.781-3.356,2.781h-24.176
			c-2.699,0-4.048-0.924-4.048-2.781v-6.01c0-1.622,0.847-2.928,2.545-3.939c3.16-1.926,5.243-5.197,6.248-9.825L405.889,942.894z
			 M413.864,980.051l-12.097,59.333h23.957L413.864,980.051z"/>
		<path d="M533.154,990.806l23.825-49.273c0.928-1.854,1.391-3.624,1.391-5.324c0-1.159-0.968-2.427-2.892-3.821
			c-2.004-1.385-3.007-2.888-3.007-4.507v-4.629c0-2.083,1.002-3.122,3.007-3.122h34.124c2.388,0,3.586,1.04,3.586,3.122v4.629
			c0,1.463-0.289,2.488-0.869,3.068c-0.579,0.57-1.95,1.402-4.103,2.482c-8.023,3.78-13.922,9.527-17.699,17.237l-18.085,36.514
			l28.919,84.376c2.164,6.396,5.915,11.523,11.249,15.375c2.627,1.926,3.942,3.89,3.942,5.894v3.812c0,2.239-1.198,3.36-3.586,3.36
			h-38.402c-2.466,0-3.703-1.159-3.703-3.476v-3.586c0-2.005,0.81-3.655,2.43-4.971c2.933-2.23,4.397-4.165,4.397-5.787
			c0-1.072-0.232-2.268-0.698-3.583l-23.825-68.941v68.831c0,3.93,1.464,6.934,4.395,9.017c2.004,1.388,3.007,2.928,3.007,4.629
			v5.205c0,1.776-1.002,2.662-3.007,2.662H501.46c-1.697,0-2.545-0.814-2.545-2.436v-5.431c0-1.77,1.002-3.313,3.008-4.629
			c2.93-2.005,4.395-5.008,4.395-9.017V941.533c0-3.936-1.466-6.905-4.395-8.91c-2.006-1.385-3.008-2.966-3.008-4.742v-5.089
			c0-1.779,1.002-2.662,3.008-2.662h36.088c1.699,0,2.545,0.814,2.545,2.427v5.324c0,1.776-1.002,3.357-3.007,4.742
			c-2.931,2.004-4.395,4.974-4.395,8.91V990.806z"/>
		<path d="M707.329,1100h-79.234c-1.848,0-2.775-0.924-2.775-2.781v-5.087c0-1.622,1.272-3.392,3.816-5.324
			c2.239-1.77,3.359-4.548,3.359-8.322V941.533c0-4.015-1.434-7.021-4.283-9.025c-1.926-1.309-2.892-2.85-2.892-4.626v-5.553
			c0-1.463,0.927-2.198,2.775-2.198h59.457c1.078,0,3.124-0.119,6.131-0.345c2.696-0.235,4.391-0.353,5.088-0.353
			c2.545,0,3.818,0.698,3.818,2.082v34.008c0,1.776-0.172,2.833-0.521,3.186c-0.345,0.345-1.331,0.516-2.951,0.516h-4.278
			c-1.851,0-2.892-1.081-3.119-3.241c-0.853-6.01-2.372-11.154-4.572-15.436c-2.2-4.284-6.614-6.422-13.246-6.422h-14.572v65.47
			h5.319c3.32,0,5.589-0.64,6.827-1.909c1.232-1.277,2.775-5.26,4.626-11.971c0.618-2.161,1.041-3.357,1.272-3.583
			c0.232-0.238,0.928-0.353,2.082-0.353h5.089c2.004,0,3.01,0.97,3.01,2.896v43.605c0,1.848-0.927,2.781-2.779,2.781h-5.32
			c-1.154,0-1.968-0.29-2.43-0.869c-0.462-0.579-1.081-2.372-1.848-5.379c-1.389-5.48-2.892-8.809-4.513-10.005
			c-1.616-1.199-3.855-1.793-6.708-1.793h-4.627v73.213h15.614c5.786,0,9.793-1.361,12.032-4.101
			c2.236-2.74,5.011-10.242,8.331-22.5c0.767-2.772,2.152-4.165,4.161-4.165h4.975c1.926,0,2.89,0.97,2.89,2.896V1100z"/>
		<path d="M771.272,1015.789v62.699c0,4.009,1.464,7.012,4.397,9.017c2.003,1.315,3.01,2.859,3.01,4.629v5.205
			c0,1.776-1.007,2.662-3.01,2.662h-36.091c-1.695,0-2.543-0.814-2.543-2.436v-5.431c0-1.7,1.002-3.241,3.009-4.629
			c2.928-2.083,4.391-5.087,4.391-9.017V941.533c0-3.936-1.463-6.905-4.391-8.91c-2.007-1.315-3.009-2.896-3.009-4.742v-5.089
			c0-1.779,1.002-2.662,3.009-2.662h30.305c17.117,0,30.147,3.858,39.096,11.569c8.943,7.714,13.418,18.854,13.418,33.429
			c0,23.213-10.758,38.211-32.275,44.992c6.322,3.085,11.121,6.575,14.402,10.465c3.28,3.899,5.8,9.622,7.577,17.185l8.443,36.662
			c1.076,4.704,2.142,7.89,3.182,9.541c1.041,1.659,2.756,3.227,5.144,4.689c0.697,0.464,1.041,1.199,1.041,2.193v6.601
			c0,1.689-0.846,2.543-2.537,2.543h-23.055c-2.23,0-3.648-1.245-4.267-3.728l-15.83-63.599c-1.699-7.013-3.569-11.563-5.612-13.643
			C777.035,1016.947,774.435,1015.867,771.272,1015.789z M771.272,934.127v67.898c8.33,0,14.46-2.621,18.39-7.867
			c3.938-5.237,5.903-14.57,5.903-27.986c0-13.113-1.988-21.733-5.958-25.86C785.634,936.195,779.524,934.127,771.272,934.127z"/>
		<path d="M911.788,1019.844v58.643c0,4.009,1.503,7.012,4.51,9.017c1.929,1.315,2.896,2.859,2.896,4.629v5.205
			c0,1.776-1.006,2.662-3.011,2.662h-36.085c-1.699,0-2.549-0.814-2.549-2.436v-5.431c0-1.7,1.002-3.241,3.011-4.635
			c2.928-2.082,4.391-5.089,4.391-9.028v-58.658l-23.133-78.279c-1.464-4.626-3.777-7.673-6.936-9.144
			c-1.777-0.768-2.662-2.082-2.662-3.928v-5.787c0-1.692,0.728-2.543,2.195-2.543h37.363c2.161,0,3.241,1.002,3.241,3.007v5.55
			c0,1.393-1.081,2.465-3.234,3.241c-3.389,1.228-5.081,3.007-5.081,5.315c0,0.776,0.157,1.619,0.462,2.543l16.929,56.225
			l15.169-51.457c0.539-1.926,0.809-3.78,0.809-5.55c0-2.934-1.726-5.173-5.179-6.717c-1.996-0.852-2.991-1.972-2.991-3.357v-6.138
			c0-1.779,0.885-2.662,2.65-2.662h28.821c2.232,0,3.344,0.852,3.344,2.543v6.013c0,1.697-1.119,3.053-3.351,4.055
			c-4.4,2.152-7.248,5.393-8.561,9.715L911.788,1019.844z"/>
	</g>
</g>
</svg>
